<svg xmlns="http://www.w3.org/2000/svg" viewBox="0 0 280 100" role="img" aria-label="THRIVE">
  <defs>
    <linearGradient id="tn-trunk" x1="0%" y1="0%" x2="100%" y2="0%">
      <stop offset="0%"   stop-color="#4A2510"/>
      <stop offset="50%"  stop-color="#8B5A2B"/>
      <stop offset="100%" stop-color="#4A2510"/>
    </linearGradient>
  </defs>
  <!-- Root buttresses -->
  <path d="M30,96 C28,90 24,86 22,82 L26,80 C28,84 30,88 31,92 Z" fill="#6B3A1F"/>
  <path d="M38,98 C37,92 36,88 35,84 L38,83 C39,87 40,92 40,98 Z" fill="#5A2E12"/>
  <path d="M46,97 C46,91 47,87 49,83 L52,84 C50,88 49,92 48,97 Z" fill="#6B3A1F"/>
  <!-- Trunk -->
  <path d="M22,82 C22,78 24,72 26,64 C27,58 28,50 29,42 C30,34 31,26 32,18 L36,16 C37,24 38,32 39,40 C40,48 41,56 42,63 C43,70 45,76 46,82 C44,83 40,84 34,84 C30,84 26,83 22,82 Z" fill="url(#tn-trunk)"/>
  <!-- Branches -->
  <path d="M29,48 C25,44 18,40 12,34 C10,32 9,30 10,28 C11,30 14,32 18,36 C22,40 27,44 30,46 Z" fill="#5A2E12"/>
  <path d="M38,44 C43,40 50,36 56,30 C58,28 58,26 57,25 C56,27 54,29 50,33 C46,37 41,41 37,43 Z" fill="#6B3A1F"/>
  <!-- Crown layers -->
  <path d="M6,68 C4,64 5,58 8,54 C11,50 15,47 18,46 C14,44 12,40 14,36 C16,32 20,30 24,30 C22,26 22,22 25,19 C28,16 32,15 35,16 C32,12 33,8 36,6 C39,4 42,5 44,8 C46,4 49,3 52,6 C55,9 54,13 52,16 C55,14 58,15 60,18 C62,22 61,26 58,30 C62,30 65,33 66,37 C67,41 65,45 62,47 C65,48 68,51 68,55 C68,59 65,63 62,65 C58,67 52,68 46,68 C40,70 34,71 28,70 C22,70 14,70 6,68 Z" fill="#1A5C38"/>
  <path d="M10,58 C9,54 11,49 14,46 C11,43 11,38 14,35 C17,32 21,31 24,32 C22,28 23,23 26,20 C29,17 33,16 36,17 C34,13 35,9 38,7 C41,5 44,6 46,9 C48,6 51,5 54,8 C57,11 56,15 54,18 C57,16 60,18 61,22 C62,26 60,30 57,32 C60,33 63,36 63,40 C63,44 61,47 58,49 C60,51 62,54 61,58 C60,62 57,64 53,65 C48,66 42,66 36,65 C30,65 22,63 16,61 C13,60 10,59 10,58 Z" fill="#257A4A"/>
  <path d="M16,50 C15,46 17,41 20,39 C18,35 19,30 22,27 C25,24 29,24 32,25 C30,21 31,16 34,14 C37,12 41,12 43,15 C45,11 48,10 51,13 C54,16 53,21 51,24 C54,22 57,24 58,28 C59,32 57,36 54,38 C57,40 59,44 58,48 C57,52 53,54 49,55 C44,56 38,55 33,54 C27,53 20,52 16,50 Z" fill="#32A060"/>
  <path d="M24,40 C23,35 25,29 28,25 C26,21 27,16 30,13 C33,10 37,10 39,13 C41,9 44,8 47,11 C50,14 49,19 47,23 C50,21 53,22 54,26 C55,30 53,35 50,37 C53,39 54,43 52,46 C50,50 46,51 42,51 C37,52 30,51 25,48 Z" fill="#42C070"/>
  <!-- Apex shoot -->
  <path d="M32,28 C31,22 33,15 36,10 C38,6 40,3 42,2 C44,3 45,7 46,11 C48,15 48,21 46,27 C44,24 42,22 40,22 C38,22 35,24 32,28 Z" fill="#5AE088"/>
  <!-- Accent dots -->
  <circle cx="12" cy="58" r="3.2" fill="#F0920A" opacity="0.85"/>
  <circle cx="62" cy="56" r="3"   fill="#F5A820" opacity="0.82"/>
  <circle cx="17" cy="38" r="2.8" fill="#F0920A" opacity="0.8"/>
  <circle cx="60" cy="37" r="2.5" fill="#E87010" opacity="0.78"/>
  <circle cx="20" cy="26" r="2.4" fill="#F5A820" opacity="0.82"/>
  <circle cx="56" cy="25" r="2.6" fill="#F0920A" opacity="0.8"/>
  <circle cx="36" cy="6"  r="2.2" fill="#5AE088" opacity="0.9"/>
  <circle cx="44" cy="5"  r="2"   fill="#7EF0A8" opacity="0.85"/>
  <!-- Wordmark — WHITE for dark backgrounds -->
  <text x="84" y="62" font-family="'Georgia', 'Times New Roman', serif" font-size="30" font-weight="700" letter-spacing="4" fill="#FFFFFF">THRIVE</text>
  <text x="85" y="75" font-family="'Georgia', serif" font-size="7.8" letter-spacing="2.2" fill="#5AE088" font-style="italic">RAISING CHAMPIONS</text>
</svg>
